# xmcd
#
# Track frame offsets: 
#        182
#        12840
#        26417
#        38782
#        52712
#        65340
#        79135
#        92565
#        107120
#        121172
#        135230
#        148702
#        162302
#        174807
#        188175
#        200507
#        214565
#        229945
#        243690
#        258325
#
# Disc length: 3630 seconds
#
# Revision: 2
# Processed by: cddbd v1.5.1PL0 Copyright (c) Steve Scherf et al.
# Submitted via: ExactAudioCopy v0.95a5
#
DISCID=030e2c14
DTITLE=Wingy Manone - Modern Jazz Played by Wingy Manone and His Cats - 
DTITLE=Plus Will Bradley 1943
DYEAR=1943
DGENRE=Swing
TTITLE0=Jingle Bells Boogie with Will Bradley
TTITLE1=Cryin' The Boogie Blues with Will Bradley
TTITLE2=Lightnin' Boogie with Will Bradley
TTITLE3=Sugar Hill Boogie Woogie with Will Bradley
TTITLE4=O Sole Mio
TTITLE5=Shake The Blues Away
TTITLE6=That Glory Day
TTITLE7=Bread and Gravy
TTITLE8=That's A Gasser
TTITLE9=Georga Gal
TTITLE10=Boogie Man
TTITLE11=Where Can I Find A Cherry?
TTITLE12=Jingle Bells Boogie with Will Bradley
TTITLE13=Sugar Hill Boogie Woogie with Will Bradley
TTITLE14=O Sole Mio
TTITLE15=Shake The Blues Away
TTITLE16=That Glory Day
TTITLE17=That's A Gasser
TTITLE18=Georgia Gal
TTITLE19=Where Can I Find A Cherry?
EXTD=
EXTT0=
EXTT1=
EXTT2=
EXTT3=
EXTT4=
EXTT5=
EXTT6=
EXTT7=
EXTT8=
EXTT9=
EXTT10=
EXTT11=
EXTT12=
EXTT13=
EXTT14=
EXTT15=
EXTT16=
EXTT17=
EXTT18=
EXTT19=
PLAYORDER=
